<svg xmlns="http://www.w3.org/2000/svg" viewBox="0 0 35.73 36.14"><defs><style>.cls-1{fill:#333;}</style></defs><title>log_out</title><g id="Calque_2" data-name="Calque 2"><g id="Calque_1-2" data-name="Calque 1"><path class="cls-1" d="M0,17.08c.08-.58.13-1.16.24-1.73a17.47,17.47,0,0,1,9-12.69,26.07,26.07,0,0,1,3.11-1.35A1,1,0,0,1,13.75,2a1.06,1.06,0,0,1-.69,1.37,16.09,16.09,0,0,0-5.3,2.92,15.23,15.23,0,0,0-5.34,9.22,15.2,15.2,0,0,0,2.66,11.9,15.11,15.11,0,0,0,10.11,6.37,15.17,15.17,0,0,0,12.66-3.38,15.23,15.23,0,0,0,5.59-10.24A15.66,15.66,0,0,0,23,3.44a2.12,2.12,0,0,1-.65-.29,1.07,1.07,0,0,1,1-1.86A17.77,17.77,0,0,1,35.47,15.41c.11.66.14,1.34.2,2l.06.38V19l-.06.42c-.12.88-.19,1.78-.37,2.65A17.87,17.87,0,0,1,20.14,36,17.84,17.84,0,0,1,3.78,29.27,17.52,17.52,0,0,1,.17,20.71c-.06-.46-.11-.93-.17-1.4Z"/><path class="cls-1" d="M18.29,0A1.31,1.31,0,0,1,19,1.28q0,8.4,0,16.8a1.2,1.2,0,0,1-.39,1,1.06,1.06,0,0,1-1.14.15,1,1,0,0,1-.63-1c0-.4,0-.8,0-1.2q0-7.93,0-15.87A1.26,1.26,0,0,1,17.44,0Z"/></g></g></svg>