<svg xmlns="http://www.w3.org/2000/svg" viewBox="0 0 20.21 30.54"><defs><style>.cls-1{fill:#333;}</style></defs><title>logo</title><g id="Calque_2" data-name="Calque 2"><g id="Calque_1-2" data-name="Calque 1"><path class="cls-1" d="M6.67,30.54a.81.81,0,0,1,.31-1c.37-.26.77-.49,1.17-.72s.62-.34.93-.51a.42.42,0,0,0,.24-.41c0-.78,0-1.56,0-2.34a.69.69,0,0,0-.14-.34,1.62,1.62,0,0,1-.58-1.12s-.09-.11-.15-.13a4.19,4.19,0,0,1-2.9-3.61A7.85,7.85,0,0,1,6,16.58c.22-.7.47-1.4.66-2.11A5.79,5.79,0,0,0,6.35,11a1,1,0,0,1-.09-.29.42.42,0,0,1,.45-.51h.64l-.29-.4c-.34.35-.49.33-.73-.08a.39.39,0,0,0-.25-.17,2.6,2.6,0,0,0-2.18.67c-.1.09-.11.3-.13.46s-.13.33-.34.34a.35.35,0,0,1-.34-.37.34.34,0,0,1,0-.1.41.41,0,0,0-.27-.5,2,2,0,0,0-1.2-.25c-.2,0-.37.08-.43.29a1,1,0,0,1,0,.1c-.13.24-.29.31-.49.22s-.22-.26-.13-.51a2.75,2.75,0,0,0,.24-.77A8.66,8.66,0,0,0,.7,8.05C.33,8.28.21,8.26,0,8V7.74L1.93,5.58c.5-.55,1-1.11,1.48-1.66a.41.41,0,0,1,0-.07l-.27-.46c-.19-.33-.18-.52,0-.64s.36,0,.55.31c.1.17.19.34.29.5l2.36-.63,2.2-.6A.35.35,0,0,1,9,2.52c.09.18,0,.32-.17.42L8.74,3a3.49,3.49,0,0,0,1.82.71c.08,0,.18,0,.22,0a.58.58,0,0,1,.2.33c0,.1-.14.22-.25.27s-.22,0-.32,0a.9.9,0,0,0-.43.16A2.36,2.36,0,0,0,9.27,6c0,.33-.1.66.33.82.16.06.17.26.07.42a.29.29,0,0,1-.41.12,2,2,0,0,0-.2-.11.69.69,0,0,0-.37,0A2.81,2.81,0,0,0,7.2,8.49a.33.33,0,0,0,0,.29c.28.45.58.89.88,1.33a.29.29,0,0,0,.18.11H9.53c0-.09,0-.15,0-.22a5.58,5.58,0,0,1,2.34-4,.59.59,0,0,0,.21-.3c.48-1.55,1-3.1,1.42-4.66a1.47,1.47,0,0,1,.81-1H15a1.79,1.79,0,0,1,.74.6c.52.64,1.06,1.28,1.59,1.92l1.42,1.72-.51.42-.12-.13-3-3.62a.49.49,0,0,0-.5-.24c-.21,0-.28.22-.34.41L13,5.28l-.05.2c.58-.09,1.14-.24,1.7-.27A5.29,5.29,0,0,1,19.8,8.54a16.09,16.09,0,0,1,.41,1.59v.81c0,.2-.07.4-.11.6a5.32,5.32,0,0,1-4,4.19c-.47.1-.95.13-1.42.19.16.58.35,1.18.5,1.79A6.24,6.24,0,0,1,15,21.34a4.1,4.1,0,0,1-2.66,2.6c-.09,0-.23.1-.23.15a1.59,1.59,0,0,1-.59,1.11.66.66,0,0,0-.17.42c0,.71,0,1.43,0,2.14a.55.55,0,0,0,.33.57c.58.31,1.15.64,1.72,1a1.1,1.1,0,0,1,.65,1.25Zm1.25-9.65c0-.13.06-.24.09-.35.58-2.05,1.15-4.09,1.72-6.14a.53.53,0,0,0,0-.33c-.2-.34-.42-.68-.64-1,0-.05-.09-.12-.14-.12H7.53a12.31,12.31,0,0,1-.22,1.66c-.21.84-.52,1.66-.77,2.5a6.69,6.69,0,0,0-.28,3.35,3.59,3.59,0,0,0,1.45,2.39,4.23,4.23,0,0,0,2,.68c.24,0,.38.17.36.37s-.16.31-.42.29l-.31,0-.05.07c.1.13.2.26.29.4s.37.45.38.68c0,.93,0,1.85,0,2.77a.84.84,0,0,1-.4.71c-.3.19-.61.35-.92.53l-.75.44,0,.06h4.86a2,2,0,0,0-.5-.38l-1.08-.62a1.05,1.05,0,0,1-.53-1c0-.65,0-1.3,0-2a1.68,1.68,0,0,1,.52-1.37,1.57,1.57,0,0,0,.21-.33h-.29a.32.32,0,0,1-.4-.28c0-.19.1-.34.33-.38s.29,0,.43-.06A3.65,3.65,0,0,0,14,22a4.62,4.62,0,0,0,.7-2.28,8.52,8.52,0,0,0-.48-2.92c-.27-.87-.54-1.73-.75-2.61A5.86,5.86,0,0,1,13.35,13h-2.5c-.09.3-.16.6-.26.89a.52.52,0,0,0,.07.48c1.1,1.71,2.2,3.44,3.29,5.16.17.27.16.46,0,.58s-.36.06-.54-.21l-.05-.09-2.88-4.52L10.28,15l-1.71,6.1L8.35,21Zm6.36-6.12c.07.4.07.42.48.4a6,6,0,0,0,1-.09A4.69,4.69,0,0,0,13.91,5.9a4.74,4.74,0,0,0-3.63,3.85l-.06.46h.46v-.06a1.8,1.8,0,0,1,1.11-2.24A.44.44,0,0,0,12,7.69a2.1,2.1,0,0,1,2.71-1.12.45.45,0,0,0,.46,0,1.55,1.55,0,0,1,2.23.85.45.45,0,0,0,.23.22,2,2,0,0,1,1.28,2.52.51.51,0,0,0,0,.42,2,2,0,0,1-1,2.66.39.39,0,0,0-.18.18A2.1,2.1,0,0,1,15,14.55a.3.3,0,0,0-.16,0ZM6.46,8.48A4,4,0,0,1,8.12,6.76L4.71,4.83l0,0Zm-.59.34L4.14,5.34l0,0-.24,4a7,7,0,0,1,1-.39A8.26,8.26,0,0,1,5.87,8.82ZM5.24,4.36,8.56,6.25a3.55,3.55,0,0,1,.67-1.89Zm9.23,5.39.09,0c0-.77,0-1.55,0-2.33,0-.07-.1-.17-.17-.2a1.41,1.41,0,0,0-1.77.73.25.25,0,0,0,0,.21C13.25,8.68,13.86,9.21,14.47,9.75Zm.76,1.57-.1,0c0,.8,0,1.61,0,2.41,0,.06.11.16.19.19a1.42,1.42,0,0,0,1.73-.82.2.2,0,0,0,0-.19ZM11,12.25h2.42l.3-1.33H11.49a.2.2,0,0,0-.14.13C11.24,11.45,11.14,11.84,11,12.25Zm3.12-2c-.7-.6-1.34-1.17-2-1.71a.33.33,0,0,0-.29,0,1.3,1.3,0,0,0-.5,1.57.28.28,0,0,0,.21.12Zm1.51.59,1.91,1.68a.28.28,0,0,0,.25,0,1.39,1.39,0,0,0,.4-1.67.29.29,0,0,0-.23-.13l-1.5.08Zm0-.68L18.12,10c.06,0,.13-.1.15-.16a1.26,1.26,0,0,0-.87-1.51.25.25,0,0,0-.23.08C16.68,8.94,16.19,9.51,15.66,10.14ZM3.38,5.8H3.31L1.72,9.06l1.45.34ZM15.23,9.59c.5-.58,1-1.12,1.44-1.67a.36.36,0,0,0,0-.27.88.88,0,0,0-1.39-.42.2.2,0,0,0-.08.14C15.23,8.09,15.23,8.82,15.23,9.59ZM8.6,10.93l.72,1.26a.2.2,0,0,0,.15.07h.86l.34-1.34Zm0,1.34c-.26-.45-.48-.85-.72-1.25a.22.22,0,0,0-.13-.1H7.09c.08.43.16.81.25,1.2a.25.25,0,0,0,.18.14Zm5.9-1.09a6.34,6.34,0,0,0-.39,2.71c0,.06.13.17.17.16s.21-.11.21-.18C14.46,13,14.46,12.1,14.46,11.18Zm-12.08-5,0,0L1.23,7.39a.2.2,0,0,0,0,.18c.05.19.13.38.21.61Zm4-2.55v.05H8.5a1.28,1.28,0,0,1-.2-.18c-.2-.31-.44-.3-.75-.19A11.72,11.72,0,0,1,6.39,3.61ZM9.8,13l.24.37.09-.37Z"/><path class="cls-1" d="M12.76,16.48a.47.47,0,0,1-.43-.46.46.46,0,0,1,.48-.45.43.43,0,0,1,.43.46A.46.46,0,0,1,12.76,16.48Z"/><path class="cls-1" d="M10.44,21.28a.45.45,0,0,1-.44.45.48.48,0,0,1-.47-.47.46.46,0,0,1,.47-.44A.44.44,0,0,1,10.44,21.28Z"/><path class="cls-1" d="M10.71,18.89a.38.38,0,0,1-.36.38.4.4,0,0,1-.4-.37.37.37,0,0,1,.37-.39A.38.38,0,0,1,10.71,18.89Z"/><path class="cls-1" d="M7.94,15.55c.1-.08.19-.2.31-.22a.25.25,0,0,1,.28.28.25.25,0,0,1-.28.26c-.11,0-.2-.14-.31-.21Z"/><path class="cls-1" d="M10.54,19.77c.1-.08.2-.2.31-.21s.28.1.28.27-.12.29-.28.26a.85.85,0,0,1-.31-.21Z"/></g></g></svg>